<svg xmlns="http://www.w3.org/2000/svg" viewBox="0 0 375 812" preserveAspectRatio="xMidYMid slice">
  <defs>
    <linearGradient id="ceu" x1="0" y1="0" x2="0" y2="1">
      <stop offset="0" stop-color="#100b22"/>
      <stop offset=".38" stop-color="#2b1637"/>
      <stop offset=".58" stop-color="#652a3b"/>
      <stop offset=".72" stop-color="#c2572f"/>
      <stop offset=".82" stop-color="#f0a24a"/>
    </linearGradient>
    <radialGradient id="brilho" cx="258" cy="652" r="190" gradientUnits="userSpaceOnUse">
      <stop offset="0" stop-color="#ffe0a0" stop-opacity=".8"/>
      <stop offset="1" stop-color="#ffb060" stop-opacity="0"/>
    </radialGradient>
  </defs>
  <rect width="375" height="812" fill="url(#ceu)"/>
  <g fill="#fff">
    <circle cx="36" cy="60" r="1.2" opacity=".8"/><circle cx="118" cy="34" r=".9" opacity=".6"/>
    <circle cx="306" cy="48" r="1.3" opacity=".85"/><circle cx="352" cy="130" r=".9" opacity=".6"/>
    <circle cx="22" cy="210" r="1" opacity=".55"/><circle cx="350" cy="250" r="1.1" opacity=".6"/>
    <circle cx="210" cy="20" r=".9" opacity=".6"/><circle cx="72" cy="310" r=".8" opacity=".45"/>
  </g>
  <rect width="375" height="812" fill="url(#brilho)"/>
  <circle cx="258" cy="652" r="58" fill="#ffd98a"/>
  <path d="M0 662 Q90 618 180 652 T375 632 V812 H0 Z" fill="#5b2a23"/>
  <g fill="#3a1915">
    <rect x="58" y="600" width="6" height="40"/>
    <circle cx="61" cy="596" r="22"/><circle cx="46" cy="606" r="15"/><circle cx="77" cy="606" r="15"/>
  </g>
  <path d="M0 712 Q120 664 232 700 T375 690 V812 H0 Z" fill="#371814"/>
  <g fill="#1d0d0b">
    <rect x="228" y="690" width="4" height="30"/><rect x="258" y="688" width="4" height="30"/>
    <rect x="288" y="686" width="4" height="30"/><rect x="318" y="686" width="4" height="30"/>
    <rect x="348" y="688" width="4" height="30"/>
    <rect x="226" y="696" width="149" height="3"/><rect x="226" y="707" width="149" height="3"/>
  </g>
  <path d="M0 770 Q140 730 262 758 T375 752 V812 H0 Z" fill="#1d0d0b"/>
</svg>
